solid lens
facet normal -1.490120690875004e-08 0.0 1.0
  outer loop
    vertex 51.24212582758046 91.44985058779885 6.799999951571082
    vertex 57.74212582758046 89.44985058779884 6.800000048428927
    vertex 57.74212582758046 91.44985058779885 6.800000048428927
  endloop
endfacet
facet normal -1.490120690875004e-08 0.0 1.0
  outer loop
    vertex 57.74212582758046 89.44985058779884 6.800000048428927
    vertex 51.24212582758046 91.44985058779885 6.799999951571082
    vertex 55.49212582758045 89.44985058779884 6.8000000149012125
  endloop
endfacet
facet normal -1.490120690875004e-08 0.0 1.0
  outer loop
    vertex 55.49212582758045 89.44985058779884 6.8000000149012125
    vertex 51.24212582758046 91.44985058779885 6.799999951571082
    vertex 54.71566869227289 89.34762806666603 6.800000003331063
  endloop
endfacet
facet normal -1.490120690875004e-08 0.0 1.0
  outer loop
    vertex 54.71566869227289 89.34762806666603 6.800000003331063
    vertex 51.24212582758046 91.44985058779885 6.799999951571082
    vertex 53.99212582758045 89.04792679915215 6.799999992549402
  endloop
endfacet
facet normal -1.490120690875004e-08 0.0 1.0
  outer loop
    vertex 53.99212582758045 89.04792679915215 6.799999992549402
    vertex 51.24212582758046 91.44985058779885 6.799999951571082
    vertex 53.37080548402081 88.57117093135848 6.799999983290978
  endloop
endfacet
facet normal -1.490120690875004e-08 0.0 1.0
  outer loop
    vertex 53.37080548402081 88.57117093135848 6.799999983290978
    vertex 51.24212582758046 91.44985058779885 6.799999951571082
    vertex 52.89404961622714 87.94985058779884 6.799999976186741
  endloop
endfacet
facet normal -1.490120690875004e-08 0.0 1.0
  outer loop
    vertex 52.89404961622714 87.94985058779884 6.799999976186741
    vertex 51.24212582758046 91.44985058779885 6.799999951571082
    vertex 52.59434834871325 87.22630772310642 6.79999997172083
  endloop
endfacet
facet normal -1.490120690875004e-08 0.0 1.0
  outer loop
    vertex 52.59434834871325 87.22630772310642 6.79999997172083
    vertex 51.24212582758046 91.44985058779885 6.799999951571082
    vertex 52.49212582758046 86.44985058779884 6.79999997019759
  endloop
endfacet
facet normal -1.490120690875004e-08 0.0 1.0
  outer loop
    vertex 55.49212582758045 83.44985058779885 6.8000000149012125
    vertex 57.74212582758046 81.44985058779884 6.800000048428927
    vertex 57.74212582758046 83.44985058779885 6.800000048428927
  endloop
endfacet
facet normal -1.490120690875004e-08 0.0 1.0
  outer loop
    vertex 57.74212582758046 81.44985058779884 6.800000048428927
    vertex 55.49212582758045 83.44985058779885 6.8000000149012125
    vertex 51.24212582758046 81.44985058779884 6.799999951571082
  endloop
endfacet
facet normal -1.490120690875004e-08 0.0 1.0
  outer loop
    vertex 51.24212582758046 81.44985058779884 6.799999951571082
    vertex 55.49212582758045 83.44985058779885 6.8000000149012125
    vertex 54.71566869227289 83.55207310893165 6.800000003331063
  endloop
endfacet
facet normal -1.490120690875004e-08 0.0 1.0
  outer loop
    vertex 51.24212582758046 81.44985058779884 6.799999951571082
    vertex 54.71566869227289 83.55207310893165 6.800000003331063
    vertex 53.99212582758045 83.85177437644553 6.799999992549402
  endloop
endfacet
facet normal -1.490120690875004e-08 0.0 1.0
  outer loop
    vertex 51.24212582758046 81.44985058779884 6.799999951571082
    vertex 53.99212582758045 83.85177437644553 6.799999992549402
    vertex 53.37080548402081 84.3285302442392 6.799999983290978
  endloop
endfacet
facet normal -1.490120690875004e-08 0.0 1.0
  outer loop
    vertex 51.24212582758046 81.44985058779884 6.799999951571082
    vertex 53.37080548402081 84.3285302442392 6.799999983290978
    vertex 52.89404961622714 84.94985058779885 6.799999976186741
  endloop
endfacet
facet normal -1.490120690875004e-08 0.0 1.0
  outer loop
    vertex 51.24212582758046 81.44985058779884 6.799999951571082
    vertex 52.89404961622714 84.94985058779885 6.799999976186741
    vertex 52.59434834871326 85.67339345249127 6.79999997172083
  endloop
endfacet
facet normal -1.490120690875004e-08 0.0 1.0
  outer loop
    vertex 51.24212582758046 81.44985058779884 6.799999951571082
    vertex 52.59434834871326 85.67339345249127 6.79999997172083
    vertex 52.49212582758046 86.44985058779884 6.79999997019759
  endloop
endfacet
facet normal -1.490120690875004e-08 0.0 1.0
  outer loop
    vertex 51.24212582758046 81.44985058779884 6.799999951571082
    vertex 52.49212582758046 86.44985058779884 6.79999997019759
    vertex 51.24212582758046 91.44985058779885 6.799999951571082
  endloop
endfacet
facet normal 1.0 0.0 1.490120690875004e-08
  outer loop
    vertex 57.74212589910625 83.44985058779885 2.0000000484289275
    vertex 57.74212582758046 81.44985058779884 6.800000048428927
    vertex 57.74212589910625 81.44985058779884 2.0000000484289275
  endloop
endfacet
facet normal 1.0 0.0 1.490120690875004e-08
  outer loop
    vertex 57.74212582758046 81.44985058779884 6.800000048428927
    vertex 57.74212589910625 83.44985058779885 2.0000000484289275
    vertex 57.74212582758046 83.44985058779885 6.800000048428927
  endloop
endfacet
facet normal 0.7933533402912324 0.6087614290087242 1.1821922275427634e-08
  outer loop
    vertex 52.89404968775294 84.94985058779885 1.9999999761867406
    vertex 53.37080548402081 84.3285302442392 6.799999983290978
    vertex 53.37080555554662 84.3285302442392 1.9999999832909787
  endloop
endfacet
facet normal 0.7933533402912324 0.6087614290087242 1.1821922275427634e-08
  outer loop
    vertex 53.37080548402081 84.3285302442392 6.799999983290978
    vertex 52.89404968775294 84.94985058779885 1.9999999761867406
    vertex 52.89404961622714 84.94985058779885 6.799999976186741
  endloop
endfacet
facet normal 0.13052619222005263 0.9914448613738104 1.944997797282284e-09
  outer loop
    vertex 55.49212589910624 83.44985058779885 2.000000014901212
    vertex 54.71566869227289 83.55207310893165 6.800000003331063
    vertex 55.49212582758045 83.44985058779885 6.8000000149012125
  endloop
endfacet
facet normal 0.13052619222005263 0.9914448613738104 1.944997797282284e-09
  outer loop
    vertex 54.71566869227289 83.55207310893165 6.800000003331063
    vertex 55.49212589910624 83.44985058779885 2.000000014901212
    vertex 54.71566876379868 83.55207310893165 2.0000000033310634
  endloop
endfacet
facet normal 0.0 1.0 0.0
  outer loop
    vertex 57.74212589910625 83.44985058779885 2.0000000484289275
    vertex 55.49212582758045 83.44985058779885 6.8000000149012125
    vertex 57.74212582758046 83.44985058779885 6.800000048428927
  endloop
endfacet
facet normal 0.0 1.0 0.0
  outer loop
    vertex 55.49212582758045 83.44985058779885 6.8000000149012125
    vertex 57.74212589910625 83.44985058779885 2.0000000484289275
    vertex 55.49212589910624 83.44985058779885 2.000000014901212
  endloop
endfacet
facet normal 0.38268343236508695 0.923879532511288 5.702445006222812e-09
  outer loop
    vertex 54.71566876379868 83.55207310893165 2.0000000033310634
    vertex 53.99212582758045 83.85177437644553 6.799999992549402
    vertex 54.71566869227289 83.55207310893165 6.800000003331063
  endloop
endfacet
facet normal 0.38268343236508695 0.923879532511288 5.702445006222812e-09
  outer loop
    vertex 53.99212582758045 83.85177437644553 6.799999992549402
    vertex 54.71566876379868 83.55207310893165 2.0000000033310634
    vertex 53.99212589910624 83.85177437644553 1.9999999925494016
  endloop
endfacet
facet normal 0.6087614290087242 0.7933533402912324 9.071280011725347e-09
  outer loop
    vertex 53.99212589910624 83.85177437644553 1.9999999925494016
    vertex 53.37080548402081 84.3285302442392 6.799999983290978
    vertex 53.99212582758045 83.85177437644553 6.799999992549402
  endloop
endfacet
facet normal 0.6087614290087242 0.7933533402912324 9.071280011725347e-09
  outer loop
    vertex 53.37080548402081 84.3285302442392 6.799999983290978
    vertex 53.99212589910624 83.85177437644553 1.9999999925494016
    vertex 53.37080555554662 84.3285302442392 1.9999999832909787
  endloop
endfacet
facet normal 0.9238795325112894 0.38268343236508334 1.3766920072709983e-08
  outer loop
    vertex 52.59434842023906 85.67339345249127 1.9999999717208303
    vertex 52.89404961622714 84.94985058779885 6.799999976186741
    vertex 52.89404968775294 84.94985058779885 1.9999999761867406
  endloop
endfacet
facet normal 0.9238795325112894 0.38268343236508334 1.3766920072709983e-08
  outer loop
    vertex 52.89404961622714 84.94985058779885 6.799999976186741
    vertex 52.59434842023906 85.67339345249127 1.9999999717208303
    vertex 52.59434834871326 85.67339345249127 6.79999997172083
  endloop
endfacet
facet normal 0.13052619222005263 -0.9914448613738104 1.944997797282284e-09
  outer loop
    vertex 54.71566876379868 89.34762806666603 2.0000000033310634
    vertex 55.49212582758045 89.44985058779884 6.8000000149012125
    vertex 54.71566869227289 89.34762806666603 6.800000003331063
  endloop
endfacet
facet normal 0.13052619222005263 -0.9914448613738104 1.944997797282284e-09
  outer loop
    vertex 55.49212582758045 89.44985058779884 6.8000000149012125
    vertex 54.71566876379868 89.34762806666603 2.0000000033310634
    vertex 55.49212589910624 89.44985058779884 2.000000014901212
  endloop
endfacet
facet normal -1.0 0.0 -1.490120690875004e-08
  outer loop
    vertex 51.24212582758046 91.44985058779885 6.799999951571082
    vertex 51.242125899106256 81.44985058779884 1.9999999515710827
    vertex 51.24212582758046 81.44985058779884 6.799999951571082
  endloop
endfacet
facet normal -1.0 0.0 -1.490120690875004e-08
  outer loop
    vertex 51.242125899106256 81.44985058779884 1.9999999515710827
    vertex 51.24212582758046 91.44985058779885 6.799999951571082
    vertex 51.242125899106256 91.44985058779885 1.9999999515710827
  endloop
endfacet
facet normal 0.0 -1.0 0.0
  outer loop
    vertex 51.242125899106256 81.44985058779884 1.9999999515710827
    vertex 57.74212582758046 81.44985058779884 6.800000048428927
    vertex 51.24212582758046 81.44985058779884 6.799999951571082
  endloop
endfacet
facet normal 0.0 -1.0 0.0
  outer loop
    vertex 57.74212582758046 81.44985058779884 6.800000048428927
    vertex 51.242125899106256 81.44985058779884 1.9999999515710827
    vertex 57.74212589910625 81.44985058779884 2.0000000484289275
  endloop
endfacet
facet normal 0.0 1.0 0.0
  outer loop
    vertex 57.74212589910625 91.44985058779885 2.0000000484289275
    vertex 51.24212582758046 91.44985058779885 6.799999951571082
    vertex 57.74212582758046 91.44985058779885 6.800000048428927
  endloop
endfacet
facet normal 0.0 1.0 0.0
  outer loop
    vertex 51.24212582758046 91.44985058779885 6.799999951571082
    vertex 57.74212589910625 91.44985058779885 2.0000000484289275
    vertex 51.242125899106256 91.44985058779885 1.9999999515710827
  endloop
endfacet
facet normal 1.0 0.0 1.490120690875004e-08
  outer loop
    vertex 57.74212589910625 91.44985058779885 2.0000000484289275
    vertex 57.74212582758046 89.44985058779884 6.800000048428927
    vertex 57.74212589910625 89.44985058779884 2.0000000484289275
  endloop
endfacet
facet normal 1.0 0.0 1.490120690875004e-08
  outer loop
    vertex 57.74212582758046 89.44985058779884 6.800000048428927
    vertex 57.74212589910625 91.44985058779885 2.0000000484289275
    vertex 57.74212582758046 91.44985058779885 6.800000048428927
  endloop
endfacet
facet normal 0.0 -1.0 0.0
  outer loop
    vertex 55.49212589910624 89.44985058779884 2.000000014901212
    vertex 57.74212582758046 89.44985058779884 6.800000048428927
    vertex 55.49212582758045 89.44985058779884 6.8000000149012125
  endloop
endfacet
facet normal 0.0 -1.0 0.0
  outer loop
    vertex 57.74212582758046 89.44985058779884 6.800000048428927
    vertex 55.49212589910624 89.44985058779884 2.000000014901212
    vertex 57.74212589910625 89.44985058779884 2.0000000484289275
  endloop
endfacet
facet normal 1.490120690875004e-08 0.0 -1.0
  outer loop
    vertex 51.242125899106256 81.44985058779884 1.9999999515710827
    vertex 57.74212589910625 83.44985058779885 2.0000000484289275
    vertex 57.74212589910625 81.44985058779884 2.0000000484289275
  endloop
endfacet
facet normal 1.490120690875004e-08 0.0 -1.0
  outer loop
    vertex 57.74212589910625 83.44985058779885 2.0000000484289275
    vertex 51.242125899106256 81.44985058779884 1.9999999515710827
    vertex 55.49212589910624 83.44985058779885 2.000000014901212
  endloop
endfacet
facet normal 1.490120690875004e-08 0.0 -1.0
  outer loop
    vertex 55.49212589910624 83.44985058779885 2.000000014901212
    vertex 51.242125899106256 81.44985058779884 1.9999999515710827
    vertex 54.71566876379868 83.55207310893165 2.0000000033310634
  endloop
endfacet
facet normal 1.490120690875004e-08 0.0 -1.0
  outer loop
    vertex 54.71566876379868 83.55207310893165 2.0000000033310634
    vertex 51.242125899106256 81.44985058779884 1.9999999515710827
    vertex 53.99212589910624 83.85177437644553 1.9999999925494016
  endloop
endfacet
facet normal 1.490120690875004e-08 0.0 -1.0
  outer loop
    vertex 53.99212589910624 83.85177437644553 1.9999999925494016
    vertex 51.242125899106256 81.44985058779884 1.9999999515710827
    vertex 53.37080555554662 84.3285302442392 1.9999999832909787
  endloop
endfacet
facet normal 1.490120690875004e-08 0.0 -1.0
  outer loop
    vertex 53.37080555554662 84.3285302442392 1.9999999832909787
    vertex 51.242125899106256 81.44985058779884 1.9999999515710827
    vertex 52.89404968775294 84.94985058779885 1.9999999761867406
  endloop
endfacet
facet normal 1.490120690875004e-08 0.0 -1.0
  outer loop
    vertex 52.89404968775294 84.94985058779885 1.9999999761867406
    vertex 51.242125899106256 81.44985058779884 1.9999999515710827
    vertex 52.59434842023906 85.67339345249127 1.9999999717208303
  endloop
endfacet
facet normal 1.490120690875004e-08 0.0 -1.0
  outer loop
    vertex 52.59434842023906 85.67339345249127 1.9999999717208303
    vertex 51.242125899106256 81.44985058779884 1.9999999515710827
    vertex 52.49212589910625 86.44985058779884 1.9999999701975917
  endloop
endfacet
facet normal 1.490120690875004e-08 0.0 -1.0
  outer loop
    vertex 55.49212589910624 89.44985058779884 2.000000014901212
    vertex 57.74212589910625 91.44985058779885 2.0000000484289275
    vertex 57.74212589910625 89.44985058779884 2.0000000484289275
  endloop
endfacet
facet normal 1.490120690875004e-08 0.0 -1.0
  outer loop
    vertex 57.74212589910625 91.44985058779885 2.0000000484289275
    vertex 55.49212589910624 89.44985058779884 2.000000014901212
    vertex 51.242125899106256 91.44985058779885 1.9999999515710827
  endloop
endfacet
facet normal 1.490120690875004e-08 0.0 -1.0
  outer loop
    vertex 51.242125899106256 91.44985058779885 1.9999999515710827
    vertex 55.49212589910624 89.44985058779884 2.000000014901212
    vertex 54.71566876379868 89.34762806666603 2.0000000033310634
  endloop
endfacet
facet normal 1.490120690875004e-08 0.0 -1.0
  outer loop
    vertex 51.242125899106256 91.44985058779885 1.9999999515710827
    vertex 54.71566876379868 89.34762806666603 2.0000000033310634
    vertex 53.99212589910624 89.04792679915215 1.9999999925494016
  endloop
endfacet
facet normal 1.490120690875004e-08 0.0 -1.0
  outer loop
    vertex 51.242125899106256 91.44985058779885 1.9999999515710827
    vertex 53.99212589910624 89.04792679915215 1.9999999925494016
    vertex 53.37080555554662 88.57117093135848 1.9999999832909787
  endloop
endfacet
facet normal 1.490120690875004e-08 0.0 -1.0
  outer loop
    vertex 51.242125899106256 91.44985058779885 1.9999999515710827
    vertex 53.37080555554662 88.57117093135848 1.9999999832909787
    vertex 52.89404968775294 87.94985058779884 1.9999999761867406
  endloop
endfacet
facet normal 1.490120690875004e-08 0.0 -1.0
  outer loop
    vertex 51.242125899106256 91.44985058779885 1.9999999515710827
    vertex 52.89404968775294 87.94985058779884 1.9999999761867406
    vertex 52.59434842023904 87.22630772310642 1.9999999717208303
  endloop
endfacet
facet normal 1.490120690875004e-08 0.0 -1.0
  outer loop
    vertex 51.242125899106256 91.44985058779885 1.9999999515710827
    vertex 52.59434842023904 87.22630772310642 1.9999999717208303
    vertex 52.49212589910625 86.44985058779884 1.9999999701975917
  endloop
endfacet
facet normal 1.490120690875004e-08 0.0 -1.0
  outer loop
    vertex 51.242125899106256 91.44985058779885 1.9999999515710827
    vertex 52.49212589910625 86.44985058779884 1.9999999701975917
    vertex 51.242125899106256 81.44985058779884 1.9999999515710827
  endloop
endfacet
facet normal 0.7933533402912324 -0.6087614290087242 1.1821922275427634e-08
  outer loop
    vertex 53.37080555554662 88.57117093135848 1.9999999832909787
    vertex 52.89404961622714 87.94985058779884 6.799999976186741
    vertex 52.89404968775294 87.94985058779884 1.9999999761867406
  endloop
endfacet
facet normal 0.7933533402912324 -0.6087614290087242 1.1821922275427634e-08
  outer loop
    vertex 52.89404961622714 87.94985058779884 6.799999976186741
    vertex 53.37080555554662 88.57117093135848 1.9999999832909787
    vertex 53.37080548402081 88.57117093135848 6.799999983290978
  endloop
endfacet
facet normal 0.6087614290087242 -0.7933533402912324 9.071280011725347e-09
  outer loop
    vertex 53.37080555554662 88.57117093135848 1.9999999832909787
    vertex 53.99212582758045 89.04792679915215 6.799999992549402
    vertex 53.37080548402081 88.57117093135848 6.799999983290978
  endloop
endfacet
facet normal 0.6087614290087242 -0.7933533402912324 9.071280011725347e-09
  outer loop
    vertex 53.99212582758045 89.04792679915215 6.799999992549402
    vertex 53.37080555554662 88.57117093135848 1.9999999832909787
    vertex 53.99212589910624 89.04792679915215 1.9999999925494016
  endloop
endfacet
facet normal 0.38268343236508695 -0.923879532511288 5.702445006222812e-09
  outer loop
    vertex 53.99212589910624 89.04792679915215 1.9999999925494016
    vertex 54.71566869227289 89.34762806666603 6.800000003331063
    vertex 53.99212582758045 89.04792679915215 6.799999992549402
  endloop
endfacet
facet normal 0.38268343236508695 -0.923879532511288 5.702445006222812e-09
  outer loop
    vertex 54.71566869227289 89.34762806666603 6.800000003331063
    vertex 53.99212589910624 89.04792679915215 1.9999999925494016
    vertex 54.71566876379868 89.34762806666603 2.0000000033310634
  endloop
endfacet
facet normal 0.9914448613738094 0.13052619222005873 1.4773725017948134e-08
  outer loop
    vertex 52.49212589910625 86.44985058779884 1.9999999701975917
    vertex 52.59434834871326 85.67339345249127 6.79999997172083
    vertex 52.59434842023906 85.67339345249127 1.9999999717208303
  endloop
endfacet
facet normal 0.9914448613738094 0.13052619222005873 1.4773725017948134e-08
  outer loop
    vertex 52.59434834871326 85.67339345249127 6.79999997172083
    vertex 52.49212589910625 86.44985058779884 1.9999999701975917
    vertex 52.49212582758046 86.44985058779884 6.79999997019759
  endloop
endfacet
facet normal 0.9238795325112842 -0.3826834323650956 1.3766920072709905e-08
  outer loop
    vertex 52.89404968775294 87.94985058779884 1.9999999761867406
    vertex 52.59434834871325 87.22630772310642 6.79999997172083
    vertex 52.59434842023904 87.22630772310642 1.9999999717208303
  endloop
endfacet
facet normal 0.9238795325112842 -0.3826834323650956 1.3766920072709905e-08
  outer loop
    vertex 52.59434834871325 87.22630772310642 6.79999997172083
    vertex 52.89404968775294 87.94985058779884 1.9999999761867406
    vertex 52.89404961622714 87.94985058779884 6.799999976186741
  endloop
endfacet
facet normal 0.9914448613738112 -0.13052619222004458 1.477372501794816e-08
  outer loop
    vertex 52.59434842023904 87.22630772310642 1.9999999717208303
    vertex 52.49212582758046 86.44985058779884 6.79999997019759
    vertex 52.49212589910625 86.44985058779884 1.9999999701975917
  endloop
endfacet
facet normal 0.9914448613738112 -0.13052619222004458 1.477372501794816e-08
  outer loop
    vertex 52.49212582758046 86.44985058779884 6.79999997019759
    vertex 52.59434842023904 87.22630772310642 1.9999999717208303
    vertex 52.59434834871325 87.22630772310642 6.79999997172083
  endloop
endfacet
facet normal -1.490120690875004e-08 0.0 1.0
  outer loop
    vertex 57.74212589910618 91.44985058779885 2.000000048428919
    vertex 56.68094654447506 86.83612183076752 2.0000000326160623
    vertex 57.74212589910618 81.44985058779884 2.000000048428919
  endloop
endfacet
facet normal -1.490120690875004e-08 0.0 1.0
  outer loop
    vertex 56.68094654447506 86.83612183076752 2.0000000326160623
    vertex 57.74212589910618 91.44985058779885 2.000000048428919
    vertex 56.50339714207481 87.18458215316443 2.0000000299703617
  endloop
endfacet
facet normal -1.490120690875004e-08 0.0 1.0
  outer loop
    vertex 56.50339714207481 87.18458215316443 2.0000000299703617
    vertex 57.74212589910618 91.44985058779885 2.000000048428919
    vertex 56.22685746447171 87.46112183076752 2.000000025849586
  endloop
endfacet
facet normal -1.490120690875004e-08 0.0 1.0
  outer loop
    vertex 56.22685746447171 87.46112183076752 2.000000025849586
    vertex 57.74212589910618 91.44985058779885 2.000000048428919
    vertex 51.24212589910618 91.44985058779885 1.9999999515710742
  endloop
endfacet
facet normal -1.490120690875004e-08 0.0 1.0
  outer loop
    vertex 57.74212589910618 81.44985058779884 2.000000048428919
    vertex 56.68094654447506 86.83612183076752 2.0000000326160623
    vertex 56.74212589910613 86.44985058779884 2.0000000335277077
  endloop
endfacet
facet normal -1.490120690875004e-08 0.0 1.0
  outer loop
    vertex 56.22685746447171 87.46112183076752 2.000000025849586
    vertex 51.24212589910618 91.44985058779885 1.9999999515710742
    vertex 55.87839714207481 87.63867123316778 2.0000000206571067
  endloop
endfacet
facet normal -1.490120690875004e-08 0.0 1.0
  outer loop
    vertex 55.87839714207481 87.63867123316778 2.0000000206571067
    vertex 51.24212589910618 91.44985058779885 1.9999999515710742
    vertex 55.49212589910613 87.69985058779884 2.0000000149011994
  endloop
endfacet
facet normal -1.490120690875004e-08 0.0 1.0
  outer loop
    vertex 55.49212589910613 87.69985058779884 2.0000000149011994
    vertex 51.24212589910618 91.44985058779885 1.9999999515710742
    vertex 55.105854656137446 87.63867123316778 2.0000000091452916
  endloop
endfacet
facet normal -1.490120690875004e-08 0.0 1.0
  outer loop
    vertex 55.105854656137446 87.63867123316778 2.0000000091452916
    vertex 51.24212589910618 91.44985058779885 1.9999999515710742
    vertex 54.75739433374054 87.46112183076752 2.0000000039528123
  endloop
endfacet
facet normal -1.490120690875004e-08 0.0 1.0
  outer loop
    vertex 54.75739433374054 87.46112183076752 2.0000000039528123
    vertex 51.24212589910618 91.44985058779885 1.9999999515710742
    vertex 54.480854656137446 87.18458215316443 1.999999999832037
  endloop
endfacet
facet normal -1.490120690875004e-08 0.0 1.0
  outer loop
    vertex 54.480854656137446 87.18458215316443 1.999999999832037
    vertex 51.24212589910618 91.44985058779885 1.9999999515710742
    vertex 54.30330525373719 86.83612183076752 1.9999999971863367
  endloop
endfacet
facet normal -1.490120690875004e-08 0.0 1.0
  outer loop
    vertex 54.30330525373719 86.83612183076752 1.9999999971863367
    vertex 51.24212589910618 91.44985058779885 1.9999999515710742
    vertex 54.24212589910613 86.44985058779884 1.9999999962746906
  endloop
endfacet
facet normal -1.490120690875004e-08 0.0 1.0
  outer loop
    vertex 57.74212589910618 81.44985058779884 2.000000048428919
    vertex 56.22685746447171 85.43857934483016 2.000000025849586
    vertex 51.24212589910618 81.44985058779884 1.9999999515710742
  endloop
endfacet
facet normal -1.490120690875004e-08 0.0 1.0
  outer loop
    vertex 56.22685746447171 85.43857934483016 2.000000025849586
    vertex 57.74212589910618 81.44985058779884 2.000000048428919
    vertex 56.50339714207481 85.71511902243326 2.0000000299703617
  endloop
endfacet
facet normal -1.490120690875004e-08 0.0 1.0
  outer loop
    vertex 56.50339714207481 85.71511902243326 2.0000000299703617
    vertex 57.74212589910618 81.44985058779884 2.000000048428919
    vertex 56.68094654447506 86.06357934483016 2.0000000326160623
  endloop
endfacet
facet normal -1.490120690875004e-08 0.0 1.0
  outer loop
    vertex 56.68094654447506 86.06357934483016 2.0000000326160623
    vertex 57.74212589910618 81.44985058779884 2.000000048428919
    vertex 56.74212589910613 86.44985058779884 2.0000000335277077
  endloop
endfacet
facet normal -1.490120690875004e-08 0.0 1.0
  outer loop
    vertex 51.24212589910618 81.44985058779884 1.9999999515710742
    vertex 56.22685746447171 85.43857934483016 2.000000025849586
    vertex 55.87839714207481 85.2610299424299 2.0000000206571067
  endloop
endfacet
facet normal -1.490120690875004e-08 0.0 1.0
  outer loop
    vertex 51.24212589910618 81.44985058779884 1.9999999515710742
    vertex 55.87839714207481 85.2610299424299 2.0000000206571067
    vertex 55.49212589910613 85.19985058779885 2.0000000149011994
  endloop
endfacet
facet normal -1.490120690875004e-08 0.0 1.0
  outer loop
    vertex 51.24212589910618 81.44985058779884 1.9999999515710742
    vertex 55.49212589910613 85.19985058779885 2.0000000149011994
    vertex 55.105854656137446 85.2610299424299 2.0000000091452916
  endloop
endfacet
facet normal -1.490120690875004e-08 0.0 1.0
  outer loop
    vertex 51.24212589910618 81.44985058779884 1.9999999515710742
    vertex 55.105854656137446 85.2610299424299 2.0000000091452916
    vertex 54.75739433374054 85.43857934483016 2.0000000039528123
  endloop
endfacet
facet normal -1.490120690875004e-08 0.0 1.0
  outer loop
    vertex 51.24212589910618 81.44985058779884 1.9999999515710742
    vertex 54.75739433374054 85.43857934483016 2.0000000039528123
    vertex 54.480854656137446 85.71511902243326 1.999999999832037
  endloop
endfacet
facet normal -1.490120690875004e-08 0.0 1.0
  outer loop
    vertex 51.24212589910618 81.44985058779884 1.9999999515710742
    vertex 54.480854656137446 85.71511902243326 1.999999999832037
    vertex 54.30330525373719 86.06357934483016 1.9999999971863367
  endloop
endfacet
facet normal -1.490120690875004e-08 0.0 1.0
  outer loop
    vertex 51.24212589910618 81.44985058779884 1.9999999515710742
    vertex 54.30330525373719 86.06357934483016 1.9999999971863367
    vertex 54.24212589910613 86.44985058779884 1.9999999962746906
  endloop
endfacet
facet normal -1.490120690875004e-08 0.0 1.0
  outer loop
    vertex 51.24212589910618 81.44985058779884 1.9999999515710742
    vertex 54.24212589910613 86.44985058779884 1.9999999962746906
    vertex 51.24212589910618 91.44985058779885 1.9999999515710742
  endloop
endfacet
facet normal -1.0 0.0 -1.490120690875004e-08
  outer loop
    vertex 51.24212589910618 91.44985058779885 1.9999999515710742
    vertex 51.24212592890859 81.44985058779884 -4.842892844525437e-08
    vertex 51.24212589910618 81.44985058779884 1.9999999515710742
  endloop
endfacet
facet normal -1.0 0.0 -1.490120690875004e-08
  outer loop
    vertex 51.24212592890859 81.44985058779884 -4.842892844525437e-08
    vertex 51.24212589910618 91.44985058779885 1.9999999515710742
    vertex 51.24212592890859 91.44985058779885 -4.842892844525437e-08
  endloop
endfacet
facet normal 1.490120690875004e-08 0.0 -1.0
  outer loop
    vertex 57.74212592890859 81.44985058779884 4.842891646039682e-08
    vertex 56.68094657427746 86.06357934483016 3.261606156823582e-08
    vertex 57.74212592890859 91.44985058779885 4.842891646039682e-08
  endloop
endfacet
facet normal 1.490120690875004e-08 0.0 -1.0
  outer loop
    vertex 56.68094657427746 86.06357934483016 3.261606156823582e-08
    vertex 57.74212592890859 81.44985058779884 4.842891646039682e-08
    vertex 56.50339717187721 85.71511902243326 2.9970361611897364e-08
  endloop
endfacet
facet normal 1.490120690875004e-08 0.0 -1.0
  outer loop
    vertex 56.50339717187721 85.71511902243326 2.9970361611897364e-08
    vertex 57.74212592890859 81.44985058779884 4.842891646039682e-08
    vertex 56.22685749427411 85.43857934483016 2.584958583295993e-08
  endloop
endfacet
facet normal 1.490120690875004e-08 0.0 -1.0
  outer loop
    vertex 56.22685749427411 85.43857934483016 2.584958583295993e-08
    vertex 57.74212592890859 81.44985058779884 4.842891646039682e-08
    vertex 51.24212592890859 81.44985058779884 -4.842892844525437e-08
  endloop
endfacet
facet normal 1.490120690875004e-08 0.0 -1.0
  outer loop
    vertex 57.74212592890859 91.44985058779885 4.842891646039682e-08
    vertex 56.68094657427746 86.06357934483016 3.261606156823582e-08
    vertex 56.74212592890852 86.44985058779884 3.352770738263011e-08
  endloop
endfacet
facet normal 1.490120690875004e-08 0.0 -1.0
  outer loop
    vertex 56.22685749427411 85.43857934483016 2.584958583295993e-08
    vertex 51.24212592890859 81.44985058779884 -4.842892844525437e-08
    vertex 55.878397171877204 85.2610299424299 2.065710646703689e-08
  endloop
endfacet
facet normal 1.490120690875004e-08 0.0 -1.0
  outer loop
    vertex 55.878397171877204 85.2610299424299 2.065710646703689e-08
    vertex 51.24212592890859 81.44985058779884 -4.842892844525437e-08
    vertex 55.49212592890853 85.19985058779885 1.490119920788402e-08
  endloop
endfacet
facet normal 1.490120690875004e-08 0.0 -1.0
  outer loop
    vertex 55.49212592890853 85.19985058779885 1.490119920788402e-08
    vertex 51.24212592890859 81.44985058779884 -4.842892844525437e-08
    vertex 55.105854685939846 85.2610299424299 9.145291243739528e-09
  endloop
endfacet
facet normal 1.490120690875004e-08 0.0 -1.0
  outer loop
    vertex 55.105854685939846 85.2610299424299 9.145291243739528e-09
    vertex 51.24212592890859 81.44985058779884 -4.842892844525437e-08
    vertex 54.75739436354294 85.43857934483016 3.952811877816486e-09
  endloop
endfacet
facet normal 1.490120690875004e-08 0.0 -1.0
  outer loop
    vertex 54.75739436354294 85.43857934483016 3.952811877816486e-09
    vertex 51.24212592890859 81.44985058779884 -4.842892844525437e-08
    vertex 54.48085468593984 85.71511902243326 -1.679635486251385e-10
  endloop
endfacet
facet normal 1.490120690875004e-08 0.0 -1.0
  outer loop
    vertex 54.48085468593984 85.71511902243326 -1.679635486251385e-10
    vertex 51.24212592890859 81.44985058779884 -4.842892844525437e-08
    vertex 54.303305283539586 86.06357934483016 -2.8136635049635927e-09
  endloop
endfacet
facet normal 1.490120690875004e-08 0.0 -1.0
  outer loop
    vertex 54.303305283539586 86.06357934483016 -2.8136635049635927e-09
    vertex 51.24212592890859 81.44985058779884 -4.842892844525437e-08
    vertex 54.24212592890853 86.44985058779884 -3.725309671853694e-09
  endloop
endfacet
facet normal 1.490120690875004e-08 0.0 -1.0
  outer loop
    vertex 57.74212592890859 91.44985058779885 4.842891646039682e-08
    vertex 56.22685749427411 87.46112183076752 2.584958583295993e-08
    vertex 51.24212592890859 91.44985058779885 -4.842892844525437e-08
  endloop
endfacet
facet normal 1.490120690875004e-08 0.0 -1.0
  outer loop
    vertex 56.22685749427411 87.46112183076752 2.584958583295993e-08
    vertex 57.74212592890859 91.44985058779885 4.842891646039682e-08
    vertex 56.50339717187721 87.18458215316443 2.9970361611897364e-08
  endloop
endfacet
facet normal 1.490120690875004e-08 0.0 -1.0
  outer loop
    vertex 56.50339717187721 87.18458215316443 2.9970361611897364e-08
    vertex 57.74212592890859 91.44985058779885 4.842891646039682e-08
    vertex 56.68094657427746 86.83612183076752 3.261606156823582e-08
  endloop
endfacet
facet normal 1.490120690875004e-08 0.0 -1.0
  outer loop
    vertex 56.68094657427746 86.83612183076752 3.261606156823582e-08
    vertex 57.74212592890859 91.44985058779885 4.842891646039682e-08
    vertex 56.74212592890852 86.44985058779884 3.352770738263011e-08
  endloop
endfacet
facet normal 1.490120690875004e-08 0.0 -1.0
  outer loop
    vertex 51.24212592890859 91.44985058779885 -4.842892844525437e-08
    vertex 56.22685749427411 87.46112183076752 2.584958583295993e-08
    vertex 55.878397171877204 87.63867123316778 2.065710646703689e-08
  endloop
endfacet
facet normal 1.490120690875004e-08 0.0 -1.0
  outer loop
    vertex 51.24212592890859 91.44985058779885 -4.842892844525437e-08
    vertex 55.878397171877204 87.63867123316778 2.065710646703689e-08
    vertex 55.49212592890853 87.69985058779884 1.490119920788402e-08
  endloop
endfacet
facet normal 1.490120690875004e-08 0.0 -1.0
  outer loop
    vertex 51.24212592890859 91.44985058779885 -4.842892844525437e-08
    vertex 55.49212592890853 87.69985058779884 1.490119920788402e-08
    vertex 55.105854685939846 87.63867123316778 9.145291243739528e-09
  endloop
endfacet
facet normal 1.490120690875004e-08 0.0 -1.0
  outer loop
    vertex 51.24212592890859 91.44985058779885 -4.842892844525437e-08
    vertex 55.105854685939846 87.63867123316778 9.145291243739528e-09
    vertex 54.75739436354294 87.46112183076752 3.952811877816486e-09
  endloop
endfacet
facet normal 1.490120690875004e-08 0.0 -1.0
  outer loop
    vertex 51.24212592890859 91.44985058779885 -4.842892844525437e-08
    vertex 54.75739436354294 87.46112183076752 3.952811877816486e-09
    vertex 54.48085468593984 87.18458215316443 -1.679635486251385e-10
  endloop
endfacet
facet normal 1.490120690875004e-08 0.0 -1.0
  outer loop
    vertex 51.24212592890859 91.44985058779885 -4.842892844525437e-08
    vertex 54.48085468593984 87.18458215316443 -1.679635486251385e-10
    vertex 54.303305283539586 86.83612183076752 -2.8136635049635927e-09
  endloop
endfacet
facet normal 1.490120690875004e-08 0.0 -1.0
  outer loop
    vertex 51.24212592890859 91.44985058779885 -4.842892844525437e-08
    vertex 54.303305283539586 86.83612183076752 -2.8136635049635927e-09
    vertex 54.24212592890853 86.44985058779884 -3.725309671853694e-09
  endloop
endfacet
facet normal 1.490120690875004e-08 0.0 -1.0
  outer loop
    vertex 51.24212592890859 91.44985058779885 -4.842892844525437e-08
    vertex 54.24212592890853 86.44985058779884 -3.725309671853694e-09
    vertex 51.24212592890859 81.44985058779884 -4.842892844525437e-08
  endloop
endfacet
facet normal 0.0 1.0 0.0
  outer loop
    vertex 57.74212592890859 91.44985058779885 4.842891646039682e-08
    vertex 51.24212589910618 91.44985058779885 1.9999999515710742
    vertex 57.74212589910618 91.44985058779885 2.000000048428919
  endloop
endfacet
facet normal 0.0 1.0 0.0
  outer loop
    vertex 51.24212589910618 91.44985058779885 1.9999999515710742
    vertex 57.74212592890859 91.44985058779885 4.842891646039682e-08
    vertex 51.24212592890859 91.44985058779885 -4.842892844525437e-08
  endloop
endfacet
facet normal 1.0 0.0 1.490120690875004e-08
  outer loop
    vertex 57.74212592890859 91.44985058779885 4.842891646039682e-08
    vertex 57.74212589910618 81.44985058779884 2.000000048428919
    vertex 57.74212592890859 81.44985058779884 4.842891646039682e-08
  endloop
endfacet
facet normal 1.0 0.0 1.490120690875004e-08
  outer loop
    vertex 57.74212589910618 81.44985058779884 2.000000048428919
    vertex 57.74212592890859 91.44985058779885 4.842891646039682e-08
    vertex 57.74212589910618 91.44985058779885 2.000000048428919
  endloop
endfacet
facet normal 0.0 -1.0 -0.0
  outer loop
    vertex 51.24212592890859 81.44985058779884 -4.842892844525437e-08
    vertex 57.74212589910618 81.44985058779884 2.000000048428919
    vertex 51.24212589910618 81.44985058779884 1.9999999515710742
  endloop
endfacet
facet normal 0.0 -1.0 -0.0
  outer loop
    vertex 57.74212589910618 81.44985058779884 2.000000048428919
    vertex 51.24212592890859 81.44985058779884 -4.842892844525437e-08
    vertex 57.74212592890859 81.44985058779884 4.842891646039682e-08
  endloop
endfacet
facet normal -0.9876883405951361 0.15643446504024122 -1.4717748619191268e-08
  outer loop
    vertex 56.74212589910613 86.44985058779884 2.0000000335277077
    vertex 56.68094657427746 86.06357934483016 3.261606156823582e-08
    vertex 56.68094654447506 86.06357934483016 2.0000000326160623
  endloop
endfacet
facet normal -0.9876883405951361 0.15643446504024122 -1.4717748619191268e-08
  outer loop
    vertex 56.68094657427746 86.06357934483016 3.261606156823582e-08
    vertex 56.74212589910613 86.44985058779884 2.0000000335277077
    vertex 56.74212592890852 86.44985058779884 3.352770738263011e-08
  endloop
endfacet
facet normal -0.9876883405951361 -0.15643446504024122 -1.4717748619191268e-08
  outer loop
    vertex 56.68094654447506 86.83612183076752 2.0000000326160623
    vertex 56.74212592890852 86.44985058779884 3.352770738263011e-08
    vertex 56.74212589910613 86.44985058779884 2.0000000335277077
  endloop
endfacet
facet normal -0.9876883405951361 -0.15643446504024122 -1.4717748619191268e-08
  outer loop
    vertex 56.74212592890852 86.44985058779884 3.352770738263011e-08
    vertex 56.68094654447506 86.83612183076752 2.0000000326160623
    vertex 56.68094657427746 86.83612183076752 3.261606156823582e-08
  endloop
endfacet
facet normal -0.8910065241883727 -0.4539904997395371 -1.3277072839760533e-08
  outer loop
    vertex 56.50339714207481 87.18458215316443 2.0000000299703617
    vertex 56.68094657427746 86.83612183076752 3.261606156823582e-08
    vertex 56.68094654447506 86.83612183076752 2.0000000326160623
  endloop
endfacet
facet normal -0.8910065241883727 -0.4539904997395371 -1.3277072839760533e-08
  outer loop
    vertex 56.68094657427746 86.83612183076752 3.261606156823582e-08
    vertex 56.50339714207481 87.18458215316443 2.0000000299703617
    vertex 56.50339717187721 87.18458215316443 2.9970361611897364e-08
  endloop
endfacet
facet normal -0.7071067811865475 -0.7071067811865475 -1.053674466396788e-08
  outer loop
    vertex 56.22685746447171 87.46112183076752 2.000000025849586
    vertex 56.50339717187721 87.18458215316443 2.9970361611897364e-08
    vertex 56.50339714207481 87.18458215316443 2.0000000299703617
  endloop
endfacet
facet normal -0.7071067811865475 -0.7071067811865475 -1.053674466396788e-08
  outer loop
    vertex 56.50339717187721 87.18458215316443 2.9970361611897364e-08
    vertex 56.22685746447171 87.46112183076752 2.000000025849586
    vertex 56.22685749427411 87.46112183076752 2.584958583295993e-08
  endloop
endfacet
facet normal -0.4539904997395372 -0.8910065241883729 -6.765006506649079e-09
  outer loop
    vertex 55.878397171877204 87.63867123316778 2.065710646703689e-08
    vertex 56.22685746447171 87.46112183076752 2.000000025849586
    vertex 55.87839714207481 87.63867123316778 2.0000000206571067
  endloop
endfacet
facet normal -0.4539904997395372 -0.8910065241883729 -6.765006506649079e-09
  outer loop
    vertex 56.22685746447171 87.46112183076752 2.000000025849586
    vertex 55.878397171877204 87.63867123316778 2.065710646703689e-08
    vertex 56.22685749427411 87.46112183076752 2.584958583295993e-08
  endloop
endfacet
facet normal -0.15643446504024122 -0.9876883405951361 -2.3310623778879844e-09
  outer loop
    vertex 55.49212592890853 87.69985058779884 1.490119920788402e-08
    vertex 55.87839714207481 87.63867123316778 2.0000000206571067
    vertex 55.49212589910613 87.69985058779884 2.0000000149011994
  endloop
endfacet
facet normal -0.15643446504024122 -0.9876883405951361 -2.3310623778879844e-09
  outer loop
    vertex 55.87839714207481 87.63867123316778 2.0000000206571067
    vertex 55.49212592890853 87.69985058779884 1.490119920788402e-08
    vertex 55.878397171877204 87.63867123316778 2.065710646703689e-08
  endloop
endfacet
facet normal 0.15643446504024122 -0.9876883405951361 2.3310623778879844e-09
  outer loop
    vertex 55.105854656137446 87.63867123316778 2.0000000091452916
    vertex 55.49212592890853 87.69985058779884 1.490119920788402e-08
    vertex 55.49212589910613 87.69985058779884 2.0000000149011994
  endloop
endfacet
facet normal 0.15643446504024122 -0.9876883405951361 2.3310623778879844e-09
  outer loop
    vertex 55.49212592890853 87.69985058779884 1.490119920788402e-08
    vertex 55.105854656137446 87.63867123316778 2.0000000091452916
    vertex 55.105854685939846 87.63867123316778 9.145291243739528e-09
  endloop
endfacet
facet normal 0.4539904997395372 -0.8910065241883729 6.765006506649079e-09
  outer loop
    vertex 54.75739436354294 87.46112183076752 3.952811877816486e-09
    vertex 55.105854656137446 87.63867123316778 2.0000000091452916
    vertex 54.75739433374054 87.46112183076752 2.0000000039528123
  endloop
endfacet
facet normal 0.4539904997395372 -0.8910065241883729 6.765006506649079e-09
  outer loop
    vertex 55.105854656137446 87.63867123316778 2.0000000091452916
    vertex 54.75739436354294 87.46112183076752 3.952811877816486e-09
    vertex 55.105854685939846 87.63867123316778 9.145291243739528e-09
  endloop
endfacet
facet normal 0.7071067811865475 -0.7071067811865475 1.053674466396788e-08
  outer loop
    vertex 54.75739436354294 87.46112183076752 3.952811877816486e-09
    vertex 54.480854656137446 87.18458215316443 1.999999999832037
    vertex 54.48085468593984 87.18458215316443 -1.679635486251385e-10
  endloop
endfacet
facet normal 0.7071067811865475 -0.7071067811865475 1.053674466396788e-08
  outer loop
    vertex 54.480854656137446 87.18458215316443 1.999999999832037
    vertex 54.75739436354294 87.46112183076752 3.952811877816486e-09
    vertex 54.75739433374054 87.46112183076752 2.0000000039528123
  endloop
endfacet
facet normal 0.8910065241883727 -0.4539904997395371 1.3277072839760533e-08
  outer loop
    vertex 54.48085468593984 87.18458215316443 -1.679635486251385e-10
    vertex 54.30330525373719 86.83612183076752 1.9999999971863367
    vertex 54.303305283539586 86.83612183076752 -2.8136635049635927e-09
  endloop
endfacet
facet normal 0.8910065241883727 -0.4539904997395371 1.3277072839760533e-08
  outer loop
    vertex 54.30330525373719 86.83612183076752 1.9999999971863367
    vertex 54.48085468593984 87.18458215316443 -1.679635486251385e-10
    vertex 54.480854656137446 87.18458215316443 1.999999999832037
  endloop
endfacet
facet normal 0.9876883405951361 -0.15643446504024122 1.4717748619191268e-08
  outer loop
    vertex 54.303305283539586 86.83612183076752 -2.8136635049635927e-09
    vertex 54.24212589910613 86.44985058779884 1.9999999962746906
    vertex 54.24212592890853 86.44985058779884 -3.725309671853694e-09
  endloop
endfacet
facet normal 0.9876883405951361 -0.15643446504024122 1.4717748619191268e-08
  outer loop
    vertex 54.24212589910613 86.44985058779884 1.9999999962746906
    vertex 54.303305283539586 86.83612183076752 -2.8136635049635927e-09
    vertex 54.30330525373719 86.83612183076752 1.9999999971863367
  endloop
endfacet
facet normal 0.9876883405951361 0.15643446504024122 1.4717748619191268e-08
  outer loop
    vertex 54.24212592890853 86.44985058779884 -3.725309671853694e-09
    vertex 54.30330525373719 86.06357934483016 1.9999999971863367
    vertex 54.303305283539586 86.06357934483016 -2.8136635049635927e-09
  endloop
endfacet
facet normal 0.9876883405951361 0.15643446504024122 1.4717748619191268e-08
  outer loop
    vertex 54.30330525373719 86.06357934483016 1.9999999971863367
    vertex 54.24212592890853 86.44985058779884 -3.725309671853694e-09
    vertex 54.24212589910613 86.44985058779884 1.9999999962746906
  endloop
endfacet
facet normal 0.8910065241883727 0.4539904997395371 1.3277072839760533e-08
  outer loop
    vertex 54.303305283539586 86.06357934483016 -2.8136635049635927e-09
    vertex 54.480854656137446 85.71511902243326 1.999999999832037
    vertex 54.48085468593984 85.71511902243326 -1.679635486251385e-10
  endloop
endfacet
facet normal 0.8910065241883727 0.4539904997395371 1.3277072839760533e-08
  outer loop
    vertex 54.480854656137446 85.71511902243326 1.999999999832037
    vertex 54.303305283539586 86.06357934483016 -2.8136635049635927e-09
    vertex 54.30330525373719 86.06357934483016 1.9999999971863367
  endloop
endfacet
facet normal 0.7071067811865475 0.7071067811865475 1.053674466396788e-08
  outer loop
    vertex 54.48085468593984 85.71511902243326 -1.679635486251385e-10
    vertex 54.75739433374054 85.43857934483016 2.0000000039528123
    vertex 54.75739436354294 85.43857934483016 3.952811877816486e-09
  endloop
endfacet
facet normal 0.7071067811865475 0.7071067811865475 1.053674466396788e-08
  outer loop
    vertex 54.75739433374054 85.43857934483016 2.0000000039528123
    vertex 54.48085468593984 85.71511902243326 -1.679635486251385e-10
    vertex 54.480854656137446 85.71511902243326 1.999999999832037
  endloop
endfacet
facet normal 0.4539904997395372 0.8910065241883729 6.765006506649079e-09
  outer loop
    vertex 55.105854685939846 85.2610299424299 9.145291243739528e-09
    vertex 54.75739433374054 85.43857934483016 2.0000000039528123
    vertex 55.105854656137446 85.2610299424299 2.0000000091452916
  endloop
endfacet
facet normal 0.4539904997395372 0.8910065241883729 6.765006506649079e-09
  outer loop
    vertex 54.75739433374054 85.43857934483016 2.0000000039528123
    vertex 55.105854685939846 85.2610299424299 9.145291243739528e-09
    vertex 54.75739436354294 85.43857934483016 3.952811877816486e-09
  endloop
endfacet
facet normal 0.15643446504024122 0.9876883405951361 2.3310623778879844e-09
  outer loop
    vertex 55.49212592890853 85.19985058779885 1.490119920788402e-08
    vertex 55.105854656137446 85.2610299424299 2.0000000091452916
    vertex 55.49212589910613 85.19985058779885 2.0000000149011994
  endloop
endfacet
facet normal 0.15643446504024122 0.9876883405951361 2.3310623778879844e-09
  outer loop
    vertex 55.105854656137446 85.2610299424299 2.0000000091452916
    vertex 55.49212592890853 85.19985058779885 1.490119920788402e-08
    vertex 55.105854685939846 85.2610299424299 9.145291243739528e-09
  endloop
endfacet
facet normal -0.15643446504024122 0.9876883405951361 -2.3310623778879844e-09
  outer loop
    vertex 55.87839714207481 85.2610299424299 2.0000000206571067
    vertex 55.49212592890853 85.19985058779885 1.490119920788402e-08
    vertex 55.49212589910613 85.19985058779885 2.0000000149011994
  endloop
endfacet
facet normal -0.15643446504024122 0.9876883405951361 -2.3310623778879844e-09
  outer loop
    vertex 55.49212592890853 85.19985058779885 1.490119920788402e-08
    vertex 55.87839714207481 85.2610299424299 2.0000000206571067
    vertex 55.878397171877204 85.2610299424299 2.065710646703689e-08
  endloop
endfacet
facet normal -0.4539904997395372 0.8910065241883729 -6.765006506649079e-09
  outer loop
    vertex 56.22685749427411 85.43857934483016 2.584958583295993e-08
    vertex 55.87839714207481 85.2610299424299 2.0000000206571067
    vertex 56.22685746447171 85.43857934483016 2.000000025849586
  endloop
endfacet
facet normal -0.4539904997395372 0.8910065241883729 -6.765006506649079e-09
  outer loop
    vertex 55.87839714207481 85.2610299424299 2.0000000206571067
    vertex 56.22685749427411 85.43857934483016 2.584958583295993e-08
    vertex 55.878397171877204 85.2610299424299 2.065710646703689e-08
  endloop
endfacet
facet normal -0.7071067811865475 0.7071067811865475 -1.053674466396788e-08
  outer loop
    vertex 56.50339714207481 85.71511902243326 2.0000000299703617
    vertex 56.22685749427411 85.43857934483016 2.584958583295993e-08
    vertex 56.22685746447171 85.43857934483016 2.000000025849586
  endloop
endfacet
facet normal -0.7071067811865475 0.7071067811865475 -1.053674466396788e-08
  outer loop
    vertex 56.22685749427411 85.43857934483016 2.584958583295993e-08
    vertex 56.50339714207481 85.71511902243326 2.0000000299703617
    vertex 56.50339717187721 85.71511902243326 2.9970361611897364e-08
  endloop
endfacet
facet normal -0.8910065241883727 0.4539904997395371 -1.3277072839760533e-08
  outer loop
    vertex 56.68094654447506 86.06357934483016 2.0000000326160623
    vertex 56.50339717187721 85.71511902243326 2.9970361611897364e-08
    vertex 56.50339714207481 85.71511902243326 2.0000000299703617
  endloop
endfacet
facet normal -0.8910065241883727 0.4539904997395371 -1.3277072839760533e-08
  outer loop
    vertex 56.50339717187721 85.71511902243326 2.9970361611897364e-08
    vertex 56.68094654447506 86.06357934483016 2.0000000326160623
    vertex 56.68094657427746 86.06357934483016 3.261606156823582e-08
  endloop
endfacet
endsolid lens
